<svg version="1.1" xmlns="http://www.w3.org/2000/svg" xmlns:xlink="http://www.w3.org/1999/xlink" width="497.47483" height="60.16751" viewBox="0,0,497.47483,60.16751"><defs><linearGradient x1="240" y1="-8.18957" x2="240" y2="46.63507" gradientUnits="userSpaceOnUse" id="color-1"><stop offset="0" stop-color="#ffffff" stop-opacity="0"/><stop offset="1" stop-color="#ffffff" stop-opacity="0.41176"/></linearGradient><linearGradient x1="240" y1="-8.18957" x2="240" y2="19.22275" gradientUnits="userSpaceOnUse" id="color-2"><stop offset="0" stop-color="#ffffff" stop-opacity="0"/><stop offset="1" stop-color="#ffffff" stop-opacity="0.12549"/></linearGradient><linearGradient x1="76.32952" y1="4.32765" x2="76.32952" y2="43.67264" gradientTransform="translate(-10.37298,-39.68866) scale(1.17297,1.17297)" gradientUnits="userSpaceOnUse" id="color-3"><stop offset="0" stop-color="#97f1ff"/><stop offset="1" stop-color="#00ddff"/></linearGradient></defs><g transform="translate(7.16588,8.18958)"><g stroke-miterlimit="10"><path d="M-4.0228,47.58591v-29.081h494.33175v29.081z" fill-opacity="0.05098" fill="#000000" stroke="#000000" stroke-width="0"/><path d="M-4.0228,51.97793v-12.24042h494.33175v12.24042z" fill-opacity="0.01176" fill="#000000" stroke="#000000" stroke-width="0"/><path d="M-4.0228,50.3793v-12.24042h494.33175v12.24042z" fill-opacity="0.01176" fill="#000000" stroke="#000000" stroke-width="0"/><path d="M-4.0228,49.06354v-12.24042h494.33175v12.24042z" fill-opacity="0.01176" fill="#000000" stroke="#000000" stroke-width="0"/><g stroke="#000000" stroke-width="0"><path d="M-7.16587,46.63507v-54.82464h494.33175v54.82465z" fill="#d9faff"/><path d="M-7.16587,46.63507v-54.82464h494.33175v54.82465z" fill="url(#color-1)"/><path d="M-7.16587,19.22275v-27.41233h494.33175v27.41233z" fill="url(#color-2)"/></g><text transform="translate(8.84338,33.83617) scale(0.85254,0.85254)" font-size="40" xml:space="preserve" fill="url(#color-3)" stroke="none" stroke-width="1" font-family="&quot;PORKYS_&quot;, Sans Serif" font-weight="normal" text-anchor="start"><tspan x="0" dy="0">ToonPool</tspan></text><text transform="translate(459.90772,7.14465) scale(0.17661,0.17661)" font-size="40" xml:space="preserve" fill-opacity="0.45098" fill="#000000" stroke-opacity="0.45098" stroke="#ffffff" stroke-width="1" font-family="Sans Serif" font-weight="normal" text-anchor="start"><tspan x="0" dy="0">v0.1.3</tspan></text></g></g></svg>