<svg version="1.1" xmlns="http://www.w3.org/2000/svg" xmlns:xlink="http://www.w3.org/1999/xlink" width="1019.01802" height="722.83146" viewBox="0,0,1019.01802,722.83146"><defs><linearGradient x1="322.13952" y1="115.29546" x2="322.13952" y2="317.35828" gradientUnits="userSpaceOnUse" id="color-1"><stop offset="0" stop-color="#b0b0b0"/><stop offset="1" stop-color="#5c5c5c"/></linearGradient><radialGradient cx="87.91345" cy="212.27334" r="123.97833" gradientUnits="userSpaceOnUse" id="color-2"><stop offset="0" stop-color="#ffffff" stop-opacity="0.14118"/><stop offset="1" stop-color="#ffffff" stop-opacity="0"/></radialGradient><linearGradient x1="317.13955" y1="31.37291" x2="317.13955" y2="114.7723" gradientUnits="userSpaceOnUse" id="color-3"><stop offset="0" stop-color="#d5d4cf"/><stop offset="1" stop-color="#fffcf4"/></linearGradient><linearGradient x1="321.60281" y1="3.04719" x2="321.60281" y2="32.97505" gradientUnits="userSpaceOnUse" id="color-4"><stop offset="0" stop-color="#f7f77e"/><stop offset="1" stop-color="#cbac45"/></linearGradient><linearGradient x1="321.60281" y1="3.04719" x2="321.60281" y2="18.01106" gradientUnits="userSpaceOnUse" id="color-5"><stop offset="0" stop-color="#ffe182" stop-opacity="0"/><stop offset="1" stop-color="#ffe182" stop-opacity="0.51373"/></linearGradient><linearGradient x1="306.84889" y1="18.01113" x2="306.84889" y2="32.97505" gradientUnits="userSpaceOnUse" id="color-6"><stop offset="0" stop-color="#ffffff" stop-opacity="0"/><stop offset="1" stop-color="#ffffff" stop-opacity="0.45882"/></linearGradient><linearGradient x1="147.48182" y1="5.77989" x2="147.48182" y2="29.77989" gradientTransform="translate(-167.1437,-47.55977) scale(2,2)" gradientUnits="userSpaceOnUse" id="color-7"><stop offset="0" stop-color="#d1b964"/><stop offset="1" stop-color="#8f6c00"/></linearGradient><radialGradient cx="137.60519" cy="17.77989" r="123.97833" gradientUnits="userSpaceOnUse" id="color-8"><stop offset="0" stop-color="#ffffff" stop-opacity="0.4"/><stop offset="1" stop-color="#ffffff" stop-opacity="0"/></radialGradient><linearGradient x1="311.83022" y1="108.1731" x2="311.83022" y2="115.36752" gradientUnits="userSpaceOnUse" id="color-9"><stop offset="0" stop-color="#000000" stop-opacity="0"/><stop offset="1" stop-color="#000000" stop-opacity="0.40392"/></linearGradient><linearGradient x1="321.60278" y1="515.95683" x2="321.60278" y2="639.07996" gradientUnits="userSpaceOnUse" id="color-10"><stop offset="0" stop-color="#dcdbd7"/><stop offset="1" stop-color="#737373"/></linearGradient><linearGradient x1="314.76948" y1="317.43053" x2="314.76948" y2="519.49335" gradientUnits="userSpaceOnUse" id="color-11"><stop offset="0" stop-color="#b0b0b0"/><stop offset="1" stop-color="#5c5c5c"/></linearGradient><linearGradient x1="304.46019" y1="310.30816" x2="304.46019" y2="317.50258" gradientUnits="userSpaceOnUse" id="color-12"><stop offset="0" stop-color="#000000" stop-opacity="0"/><stop offset="1" stop-color="#000000" stop-opacity="0.40392"/></linearGradient></defs><g transform="translate(187.90623,83.2515)"><g stroke-miterlimit="10"><path d="M-25.42147,317.35828v-202.06279h695.12195v202.06279z" fill="url(#color-1)" stroke="none" stroke-width="0"/><path d="M-36.06488,313.30474v-202.06278h247.95665v202.06279z" fill="url(#color-2)" stroke="none" stroke-width="0"/><path d="M-35.95336,114.7723v-83.39938h706.18572v83.39939z" fill="url(#color-3)" stroke="none" stroke-width="0"/><path d="M-31.49007,32.97505v-29.92785h706.1857v29.92785z" fill="url(#color-4)" stroke="none" stroke-width="0"/><path d="M-31.49007,18.01106v-14.96392h706.1857v14.96392z" fill="url(#color-5)" stroke="none" stroke-width="0"/><path d="M-33.36541,32.97505v-14.96392h680.42854v14.96392z" fill="url(#color-6)" stroke="#000000" stroke-width="0"/><text transform="translate(83.57185,23.77989) scale(0.5,0.5)" font-size="40" xml:space="preserve" fill="url(#color-7)" stroke-opacity="0.19216" stroke="#442e1b" stroke-width="1" font-family="Archivo" font-weight="normal" text-anchor="start"><tspan x="0" dy="0">Other Projects</tspan></text><path d="M13.62686,118.81128v-202.06278h247.95665v202.06279z" fill="url(#color-8)" stroke="none" stroke-width="0"/><path d="M-41.26269,115.36752v-7.19442h706.18572v7.19442z" fill="url(#color-9)" stroke="none" stroke-width="0"/><text transform="translate(320.00003,64.5699) scale(0.44773,0.44773)" font-size="40" xml:space="preserve" fill="#858585" stroke="none" stroke-width="1" font-family="Archivo" font-weight="normal" text-anchor="middle"><tspan x="0" dy="0">Other Projects (Page 2)</tspan><tspan x="0" dy="46.15px">Projects we've made that are hosted on ToonPool</tspan></text><text transform="translate(21.8383,173.28302) scale(1.20589,1.20589)" font-size="40" xml:space="preserve" fill="#ffffff" stroke="none" stroke-width="1" font-family="Archivo" font-weight="normal" text-anchor="start"><tspan x="0" dy="0">Empty Slot</tspan></text><text transform="translate(22.63105,205.42144) scale(0.34967,0.34967)" font-size="40" xml:space="preserve" fill="#ffffff" stroke="none" stroke-width="1" font-family="Archivo" font-weight="normal" text-anchor="start"><tspan x="0" dy="0">Description</tspan></text><text transform="translate(29.14534,190.16146) scale(0.27722,0.27722)" font-size="40" xml:space="preserve" fill="#ffffff" stroke="none" stroke-width="1" font-family="Archivo" font-weight="normal" text-anchor="start"><tspan x="0" dy="0">(ToonPool.xyz)</tspan></text><path d="M-182.90623,639.07996c-2.48528,0 -4.5,-1.20589 -4.5,-2.69343v-117.73626c0,-1.48754 2.01472,-2.69343 4.5,-2.69343h1009.01802c2.48528,0 4.5,1.20589 4.5,2.69343v117.73626c0,1.48754 -2.01472,2.69343 -4.5,2.69343z" fill="url(#color-10)" stroke-opacity="0.05882" stroke="#000000" stroke-width="1"/><path d="M-32.79151,519.49335v-202.06279h695.12195v202.06279z" fill="url(#color-11)" stroke="none" stroke-width="0"/><path d="M-48.63272,317.50258v-7.19442h706.18572v7.19442z" fill="url(#color-12)" stroke="none" stroke-width="0"/><text transform="translate(21.8383,379.51085) scale(1.20589,1.20589)" font-size="40" xml:space="preserve" fill="#ffffff" stroke="none" stroke-width="1" font-family="Archivo" font-weight="normal" text-anchor="start"><tspan x="0" dy="0">Empty Slot</tspan></text><text transform="translate(22.63105,411.64927) scale(0.34967,0.34967)" font-size="40" xml:space="preserve" fill="#ffffff" stroke="none" stroke-width="1" font-family="Archivo" font-weight="normal" text-anchor="start"><tspan x="0" dy="0">Description</tspan></text><text transform="translate(29.14534,396.38929) scale(0.27722,0.27722)" font-size="40" xml:space="preserve" fill="#ffffff" stroke="none" stroke-width="1" font-family="Archivo" font-weight="normal" text-anchor="start"><tspan x="0" dy="0">(ToonPool.xyz)</tspan></text></g></g></svg>